<?xml version="1.0" standalone="no"?><!DOCTYPE svg PUBLIC "-//W3C//DTD SVG 1.1//EN" "http://www.w3.org/Graphics/SVG/1.1/DTD/svg11.dtd"><svg t="1528337157781" class="icon" style="" viewBox="0 0 1024 1024" version="1.1" xmlns="http://www.w3.org/2000/svg" p-id="1546" xmlns:xlink="http://www.w3.org/1999/xlink" width="48" height="48"><defs><style type="text/css"></style></defs><path d="M172.18370333 123.6385189h242.72592668c29.12711111 0 48.54518557 19.41807445 48.54518442 48.54518443v339.81629667c0 29.12711111-19.41807445 48.54518557-48.54518442 48.54518557H172.18370333c-29.12711111 0-48.54518557-19.41807445-48.54518443-48.54518557V172.18370333c0-29.12711111 19.41807445-48.54518557 48.54518443-48.54518443z m436.90666666 0h242.72592668c29.12711111 0 48.54518557 19.41807445 48.54518443 48.54518443v145.63555555c0 29.12711111-19.41807445 48.54518557-48.54518443 48.54518557h-242.72592668c-29.12711111 0-48.54518557-19.41807445-48.54518442-48.54518557V172.18370333c0-29.12711111 19.41807445-48.54518557 48.54518442-48.54518443zM172.18370333 657.63555555h242.72592668c29.12711111 0 48.54518557 19.41807445 48.54518442 48.54518557v145.63555555c0 29.12711111-19.41807445 48.54518557-48.54518442 48.54518443H172.18370333c-29.12711111 0-48.54518557-19.41807445-48.54518443-48.54518443v-145.63555555c0-29.12711111 19.41807445-48.54518557 48.54518443-48.54518557z m436.90666666-194.18074112h242.72592668c29.12711111 0 48.54518557 19.41807445 48.54518443 48.54518557v339.81629667c0 29.12711111-19.41807445 48.54518557-48.54518443 48.54518443h-242.72592668c-29.12711111 0-48.54518557-19.41807445-48.54518442-48.54518443v-339.81629667c0-29.12711111 19.41807445-48.54518557 48.54518442-48.54518557z" p-id="1547" fill="#222222"></path></svg>