<?xml version="1.0" standalone="no"?><!DOCTYPE svg PUBLIC "-//W3C//DTD SVG 1.1//EN" "http://www.w3.org/Graphics/SVG/1.1/DTD/svg11.dtd"><svg t="1528337240498" class="icon" style="" viewBox="0 0 1153 1024" version="1.1" xmlns="http://www.w3.org/2000/svg" p-id="1884" xmlns:xlink="http://www.w3.org/1999/xlink" width="54.046875" height="48"><defs><style type="text/css"></style></defs><path d="M811.953125 991.8565625c66.2634375 0 119.98125-53.6203125 119.98125-119.79375v-270c0-16.6828125 13.486875-30.20625 30.1640625-30.20625h88.2215625c66.1528125 0 81.45375-37.753125 34.08-84.418125L657.65 67.0746875c-47.330625-46.6228125-124.021875-46.665-171.39 0L59.5596875 487.4375c-47.325 46.6228125-32.240625 84.418125 34.0903125 84.418125h88.2215625c16.659375 0 30.1640625 13.498125 30.1640625 30.20625v270c0 66.1603125 53.98125 119.79375 119.98125 119.79375h120.0590625c16.5253125 0 29.92125-13.6725 29.92125-30.075v-299.85c0-16.610625 13.528125-30.075 29.71875-30.075H632.253125c16.41375 0 29.71875 13.6725 29.71875 30.075v299.85c0 16.610625 13.3875 30.075 29.9221875 30.075H811.953125z" p-id="1885" fill="#d9d9d9"></path></svg>