<?xml version="1.0" standalone="no"?><!DOCTYPE svg PUBLIC "-//W3C//DTD SVG 1.1//EN" "http://www.w3.org/Graphics/SVG/1.1/DTD/svg11.dtd"><svg t="1528336634452" class="icon" style="" viewBox="0 0 1024 1024" version="1.1" xmlns="http://www.w3.org/2000/svg" p-id="2376" xmlns:xlink="http://www.w3.org/1999/xlink" width="48" height="48"><defs><style type="text/css"></style></defs><path d="M512 938.666667C277.333333 938.666667 85.333333 746.666667 85.333333 512S277.333333 85.333333 512 85.333333s426.666667 192 426.666667 426.666667-192 426.666667-426.666667 426.666667zM264.533333 512c0 136.533333 110.933333 247.466667 247.466667 247.466667s247.466667-110.933333 247.466667-247.466667c0-17.066667-12.8-34.133333-34.133334-34.133333s-34.133333 12.8-34.133333 34.133333c0 98.133333-81.066667 179.2-179.2 179.2S332.8 610.133333 332.8 512c0-17.066667-12.8-34.133333-34.133333-34.133333s-34.133333 17.066667-34.133334 34.133333z" fill="#222222" p-id="2377"></path></svg>