<?xml version="1.0" standalone="no"?><!DOCTYPE svg PUBLIC "-//W3C//DTD SVG 1.1//EN" "http://www.w3.org/Graphics/SVG/1.1/DTD/svg11.dtd"><svg t="1528337259542" class="icon" style="" viewBox="0 0 1024 1024" version="1.1" xmlns="http://www.w3.org/2000/svg" p-id="2268" xmlns:xlink="http://www.w3.org/1999/xlink" width="48" height="48"><defs><style type="text/css"></style></defs><path d="M512 90.125C278.05113613 90.125 90.125 279.96875 90.125 512c0 226.27840924 180.25568152 412.28693152 404.6164769 421.875H742.11363613c19.17613613 0 38.3522731-19.17613613 38.35227311-38.3522731v-57.52840842c93.96306848-76.70454538 153.40909075-193.6789769 153.40909076-325.99431848C933.875 279.96875 745.94886387 90.125 512 90.125zM291.47443152 569.52840924C264.62784075 569.52840924 243.53409076 548.43465925 243.53409076 521.58806848S264.62784075 473.6477269 291.47443152 473.6477269s47.94034075 21.09375 47.94034158 47.94034158-21.09375 47.94034075-47.94034158 47.94034076zM512 569.52840924c-26.84659075 0-47.94034075-21.09375-47.94034075-47.94034076S485.15340925 473.6477269 512 473.6477269s47.94034075 21.09375 47.94034075 47.94034158S538.84659075 569.52840924 512 569.52840924z m220.52556848 0c-26.84659075 0-47.94034075-21.09375-47.94034158-47.94034076s21.09375-47.94034075 47.94034158-47.94034158 47.94034075 21.09375 47.94034077 47.94034158-21.09375 47.94034075-47.94034077 47.94034076z" fill="#d9d9d9" p-id="2269"></path></svg>